<?xml version="1.0" encoding="utf-8"?>
<!-- Generator: Adobe Illustrator 23.1.1, SVG Export Plug-In . SVG Version: 6.00 Build 0)  -->
<svg version="1.1" id="Lager_1" xmlns="http://www.w3.org/2000/svg" xmlns:xlink="http://www.w3.org/1999/xlink" x="0px" y="0px"
	 viewBox="0 0 57.4 57.4" style="enable-background:new 0 0 57.4 57.4;" xml:space="preserve">
<style type="text/css">
	.st0{fill:#2F72E1;}
</style>
<g>
	<path class="st0" d="M52.1,12.1c0.6-0.8,1-1.9,1-3c0-2.6-2.1-4.8-4.8-4.8c-1.1,0-2.2,0.4-3,1C40.6,2,34.9,0,28.7,0
		C12.9,0,0,12.8,0,28.7s12.9,28.7,28.7,28.7s28.7-12.8,28.7-28.7C57.4,22.5,55.4,16.8,52.1,12.1z M28.7,53.1
		c-13.4,0-24.4-10.9-24.4-24.4c0-13.4,10.9-24.4,24.4-24.4c5.6,0,10.7,1.9,14.8,5c0.1,2.4,2.1,4.4,4.5,4.5c3.2,4.1,5.1,9.3,5.1,14.8
		C53.1,42.1,42.1,53.1,28.7,53.1z"/>
	<circle class="st0" cx="28.7" cy="28.7" r="13.2"/>
</g>
</svg>
