<?xml version="1.0" encoding="utf-8"?>
<!-- Generator: Adobe Illustrator 23.1.1, SVG Export Plug-In . SVG Version: 6.00 Build 0)  -->
<svg version="1.1" id="Capa_1" xmlns="http://www.w3.org/2000/svg" xmlns:xlink="http://www.w3.org/1999/xlink" x="0px" y="0px"
	 viewBox="0 0 460.9 431.8" style="enable-background:new 0 0 460.9 431.8;" xml:space="preserve">
<style type="text/css">
	.st0{fill:#0868AC;}
</style>
<path class="st0" d="M29.2,101.6c-39.8,57.2-34.8,131.5-4.4,192.3c0.7,1.5,1.5,2.9,2.2,4.3c0.5,0.9,0.9,1.8,1.4,2.7
	c0.3,0.5,0.6,1.1,0.9,1.6c0.5,1,1,1.9,1.6,2.8c0.9,1.7,1.9,3.3,2.9,5c0.5,0.9,1.1,1.8,1.7,2.7c1.1,1.8,2.2,3.5,3.4,5.3
	c0.5,0.7,0.9,1.5,1.4,2.2c1.6,2.4,3.2,4.7,4.9,7l0.1,0.2c0.3,0.4,0.6,0.7,0.8,1.1c1.4,2,2.9,4,4.4,5.9c0.6,0.7,1.1,1.4,1.7,2.1
	c1.9,2.3,3.8,4.6,5.7,6.9c1.9,2.3,3.8,4.5,5.8,6.7c0.1,0.1,0.2,0.1,0.2,0.2c4,4.3,8.1,8.5,12.3,12.6c0.6,0.6,1.3,1.2,1.9,1.8
	c2.1,2,4.3,4,6.5,5.9c0.4,0.3,0.7,0.6,1.1,0.9c1.9,1.6,3.8,3.3,5.8,4.9c0.8,0.6,1.6,1.3,2.4,1.9c1.6,1.3,3.2,2.5,4.8,3.8l2.6,2
	c1.8,1.3,3.6,2.6,5.4,3.9c0.7,0.5,1.3,0.9,2,1.4c0.2,0.1,0.4,0.3,0.5,0.4c1.7,1.2,3.5,2.3,5.2,3.5c0.8,0.5,1.5,1,2.3,1.5
	c2.7,1.7,5.4,3.4,8.2,5c0.7,0.4,1.5,0.9,2.3,1.3c2,1.2,4.1,2.3,6.2,3.5c1.1,0.6,2.3,1.2,3.4,1.8c1.5,0.8,2.9,1.6,4.4,2.3
	c0.3,0.2,0.7,0.3,1,0.5c0.6,0.3,1.2,0.6,1.8,0.9c2.8,1.3,5.6,2.7,8.5,3.9c2.7,1.2,5.4,2.3,8.2,3.4c0.7,0.3,1.3,0.5,2,0.8
	c2.9,1.1,5.8,2.2,8.7,3.2c2.8,1,5.7,1.9,8.6,2.8c0.7,0.2,1.4,0.4,2.1,0.6c2.9,0.9,5.8,1.9,8.9,2.5
	c192.4,35.1,248.2-115.6,248.2-115.6C392.2,373,308.9,389.2,230,371.2c-3-0.7-5.9-1.6-8.8-2.5c-3.6-1.1-7.1-2.2-10.7-3.4l-1.2-0.4
	c-2.5-0.9-5-1.8-7.5-2.8c-0.7-0.3-1.4-0.5-2.1-0.8c-2.7-1.1-5.4-2.2-8.1-3.4c-0.5-0.2-1.1-0.5-1.6-0.7c-2.9-1.3-5.9-2.7-8.8-4.1
	c-1.8-0.9-3.5-1.8-5.3-2.7c-1.2-0.6-2.4-1.2-3.5-1.8c-2.1-1.1-4.2-2.3-6.3-3.5c-0.7-0.4-1.4-0.8-2.1-1.2c-2.8-1.6-5.5-3.3-8.2-5
	c-0.7-0.5-1.5-1-2.2-1.5c-2-1.3-3.9-2.6-5.9-3.9c-0.6-0.4-1.3-0.9-1.9-1.3c-1.9-1.3-3.7-2.6-5.5-4c-0.8-0.6-1.6-1.2-2.5-1.9
	c-2.4-1.9-4.8-3.8-7.2-5.7c-2.1-1.7-4.2-3.5-6.2-5.2l-0.7-0.6c-2.2-1.9-4.4-3.9-6.5-5.9c-0.6-0.6-1.2-1.2-1.8-1.8
	c-1.6-1.5-3.2-3-4.7-4.6c-0.6-0.6-1.2-1.2-1.8-1.8c-2-2-3.9-4-5.8-6.1l-0.3-0.3c-2-2.2-3.9-4.4-5.8-6.7c-0.5-0.6-1-1.2-1.5-1.8
	c-1.4-1.7-2.8-3.4-4.2-5.2c-0.5-0.6-1-1.3-1.5-1.9c-1.7-2.1-3.3-4.3-4.9-6.5C41,212.4,25.3,130,60.3,62.3"/>
<path class="st0" d="M152.7,53.5c-28.8,41.4-27.2,96.8-4.8,140.6c3.8,7.4,8,14.5,12.7,21.2c4.3,6.2,9.1,13.5,14.8,18.5
	c2.1,2.3,4.2,4.5,6.5,6.7c0.6,0.6,1.1,1.1,1.7,1.7c2.1,2.1,4.3,4.1,6.6,6.1c0.1,0.1,0.2,0.2,0.3,0.2c0,0,0.1,0,0.1,0.1
	c2.5,2.2,5.1,4.3,7.7,6.4c0.6,0.4,1.2,0.9,1.7,1.4c2.6,2,5.3,4,8.1,5.9c0.1,0.1,0.2,0.1,0.2,0.2c1.2,0.8,2.4,1.6,3.7,2.4
	c0.6,0.4,1.1,0.8,1.7,1.1c2,1.3,3.9,2.5,6,3.7c0.3,0.2,0.6,0.3,0.8,0.5c1.7,1,3.5,2,5.3,2.9c0.6,0.3,1.2,0.7,1.9,1
	c1.2,0.6,2.4,1.3,3.7,1.9c0.2,0.1,0.4,0.2,0.6,0.3c2.5,1.3,5.1,2.5,7.7,3.6c0.6,0.2,1.1,0.5,1.7,0.7c2.1,0.9,4.2,1.8,6.3,2.6
	c0.9,0.3,1.8,0.7,2.7,1c1.9,0.7,3.9,1.4,5.8,2c0.9,0.3,1.7,0.6,2.6,0.8c2.8,0.9,5.5,1.9,8.4,2.4C415.7,313.9,450,199.6,450,199.6
	c-30.9,44.5-90.8,65.8-154.6,49.2c-3.7-1-7.3-2.1-10.9-3.2c-2.9-0.9-5.7-1.9-8.5-3c-2.1-0.8-4.2-1.7-6.3-2.6
	c-0.6-0.2-1.1-0.5-1.7-0.7c-2.6-1.1-5.2-2.3-7.7-3.6c-1.3-0.6-2.6-1.3-3.9-2l-2.2-1.2c-1.7-0.9-3.3-1.8-4.9-2.8
	c-0.4-0.2-0.8-0.4-1.2-0.7c-2-1.2-4-2.4-6-3.6c-0.6-0.4-1.2-0.8-1.8-1.2c-1.3-0.8-2.6-1.7-3.9-2.6c-2.7-1.9-5.4-3.9-8-5.9
	c-0.6-0.5-1.2-0.9-1.8-1.4c-28-22.1-50.1-52.2-60.7-86.4c-11-35.5-8.7-75.3,10.5-107.6"/>
<path class="st0" d="M256.6,17.5c-17,25-18.6,55.9-6.9,83.5c12.4,29.3,37.8,52.2,67.5,63.1c1.2,0.5,2.4,0.9,3.7,1.3
	c0.5,0.2,1.1,0.4,1.6,0.5c1.7,0.5,3.5,1.2,5.3,1.5c82,15.8,104.2-42.1,110.2-50.6c-19.5,28.1-52.2,34.8-92.4,25
	c-3.3-0.8-6.5-1.8-9.7-3c-3.9-1.4-7.8-3-11.5-4.8c-7.1-3.4-13.9-7.6-20.2-12.3c-36-27.3-58.3-79.3-34.8-121.7"/>
</svg>
