<?xml version="1.0" encoding="utf-8"?>
<!-- Generator: Adobe Illustrator 23.1.1, SVG Export Plug-In . SVG Version: 6.00 Build 0)  -->
<svg version="1.1" id="Capa_1" xmlns="http://www.w3.org/2000/svg" xmlns:xlink="http://www.w3.org/1999/xlink" x="0px" y="0px"
	 viewBox="0 0 310.7 713" style="enable-background:new 0 0 310.7 713;" xml:space="preserve">
<style type="text/css">
	.st0{fill-rule:evenodd;clip-rule:evenodd;fill:#FFFFFF;}
	.st1{fill-rule:evenodd;clip-rule:evenodd;fill:#A6A385;}
	.st2{fill-rule:evenodd;clip-rule:evenodd;fill:#499D4A;}
	.st3{fill-rule:evenodd;clip-rule:evenodd;fill:#58AA50;}
</style>
<path class="st0" d="M171.2,695l-18.5-6.3c0,0,2.3-94.2-31.5-100.9c-22.5-26.1,3.6-1108.5,84.7-3.6c0,0-27.9,14-32.9,37.9
	C167.6,645.4,171.2,695,171.2,695L171.2,695z"/>
<path class="st1" d="M171.2,695l-18.5-6.3c0,0,2.3-94.2-31.5-100.9c-22.5-26.1,3.6-1108.5,84.7-3.6c0,0-27.9,14-32.9,37.9
	C167.6,645.4,171.2,695,171.2,695L171.2,695z"/>
<path class="st0" d="M181.1,603.9c0,0,161.8-106.3,123.9-327.6C268.5,115.5,182.4,62.8,173,42.5c-10.4-14.4-20.3-39.6-20.3-39.6
	l6.8,447.4C159.4,450.7,145.5,587.3,181.1,603.9"/>
<path class="st2" d="M181.1,603.9c0,0,161.8-106.3,123.9-327.6C268.5,115.5,182.4,62.8,173,42.5c-10.4-14.4-20.3-39.6-20.3-39.6
	l6.8,447.4C159.4,450.7,145.5,587.3,181.1,603.9"/>
<path class="st0" d="M143.2,609.8c0,0-151.9-103.6-142.8-286.1C8.9,141.2,116.2,51.5,136.9,35.3c13.5-14.4,14-19.8,14.9-34.2
	c9.5,20.3,7.7,303.3,9,336.6C164.8,466.1,153.6,585.5,143.2,609.8z"/>
<path class="st3" d="M143.2,609.8c0,0-151.9-103.6-142.8-286.1C8.9,141.2,116.2,51.5,136.9,35.3c13.5-14.4,14-19.8,14.9-34.2
	c9.5,20.3,7.7,303.3,9,336.6C164.8,466.1,153.6,585.5,143.2,609.8z"/>
</svg>
