<?xml version="1.0" encoding="utf-8"?>
<!-- Generator: Adobe Illustrator 23.1.1, SVG Export Plug-In . SVG Version: 6.00 Build 0)  -->
<svg version="1.1" id="Capa_1" xmlns:sketch="http://www.bohemiancoding.com/sketch/ns"
	 xmlns="http://www.w3.org/2000/svg" xmlns:xlink="http://www.w3.org/1999/xlink" x="0px" y="0px" viewBox="0 0 400 500"
	 style="enable-background:new 0 0 400 500;" xml:space="preserve">
<style type="text/css">
	.st0{fill-rule:evenodd;clip-rule:evenodd;fill:#D6FF00;}
	.st1{fill-rule:evenodd;clip-rule:evenodd;fill:#34E27A;}
	.st2{fill-rule:evenodd;clip-rule:evenodd;fill:#00B9F1;}
	.st3{fill-rule:evenodd;clip-rule:evenodd;fill:#FFFFFF;}
</style>
<title>Group</title>
<desc>Created with Sketch.</desc>
<g id="Page-1" sketch:type="MSPage">
	<g id="passport_logo_final" transform="translate(-400.000000, -350.000000)" sketch:type="MSLayerGroup">
		<g id="Group" sketch:type="MSShapeGroup">
			<g id="Shape">
				<g transform="translate(400.000000, 350.000000)">
					<path class="st0" d="M200,0C89.5,0,0,89.5,0,200h100c0-55.2,44.8-100,100-100V0L200,0z"/>
					<path class="st1" d="M400,200C400,89.5,310.5,0,200,0v100c55.2,0,100,44.8,100,100H400L400,200z"/>
					<path class="st2" d="M200,400c110.5,0,200-89.5,200-200H300c0,55.2-44.8,100-100,100V400L200,400z"/>
					<path class="st3" d="M100,400V200H0v300h200V400H100z"/>
				</g>
			</g>
		</g>
	</g>
</g>
</svg>
